<svg width="130" height="11" viewBox="0 0 130 11" fill="none" xmlns="http://www.w3.org/2000/svg">
<path d="M7.07 5.52H4.466V8.068H3.584V5.52H0.98V4.694H3.584V2.132H4.466V4.694H7.07V5.52ZM12.0827 0.116C13.3801 0.116 14.3741 0.545333 15.0647 1.404C15.7554 2.25333 16.1007 3.45733 16.1007 5.016C16.1007 6.108 15.9141 7.032 15.5407 7.788C15.1674 8.544 14.6447 9.118 13.9727 9.51C13.3007 9.89267 12.5167 10.084 11.6207 10.084C10.6501 10.084 9.8754 9.90667 9.29673 9.552L9.70273 8.74C10.1694 9.048 10.8041 9.202 11.6067 9.202C12.6894 9.202 13.5387 8.86133 14.1547 8.18C14.7707 7.48933 15.0787 6.49067 15.0787 5.184C15.0787 4.94133 15.0647 4.67533 15.0367 4.386C14.7941 4.918 14.4067 5.33333 13.8747 5.632C13.3427 5.92133 12.7314 6.066 12.0407 6.066C11.3967 6.066 10.8227 5.94467 10.3187 5.702C9.82407 5.45933 9.43673 5.11867 9.15673 4.68C8.87673 4.232 8.73673 3.714 8.73673 3.126C8.73673 2.52867 8.8814 2.00133 9.17073 1.544C9.46007 1.08667 9.85673 0.736666 10.3607 0.494C10.8741 0.242 11.4481 0.116 12.0827 0.116ZM12.1947 5.212C12.6894 5.212 13.1234 5.11867 13.4967 4.932C13.8794 4.74533 14.1781 4.48867 14.3927 4.162C14.6074 3.83533 14.7147 3.47133 14.7147 3.07C14.7147 2.69667 14.6121 2.35133 14.4067 2.034C14.2107 1.71667 13.9167 1.46 13.5247 1.264C13.1327 1.068 12.6661 0.969999 12.1247 0.969999C11.4154 0.969999 10.8367 1.166 10.3887 1.558C9.95007 1.94067 9.73073 2.454 9.73073 3.098C9.73073 3.742 9.95007 4.25533 10.3887 4.638C10.8367 5.02067 11.4387 5.212 12.1947 5.212ZM20.864 0.116C22.1613 0.116 23.1553 0.545333 23.846 1.404C24.5367 2.25333 24.882 3.45733 24.882 5.016C24.882 6.108 24.6953 7.032 24.322 7.788C23.9487 8.544 23.426 9.118 22.754 9.51C22.082 9.89267 21.298 10.084 20.402 10.084C19.4313 10.084 18.6567 9.90667 18.078 9.552L18.484 8.74C18.9507 9.048 19.5853 9.202 20.388 9.202C21.4707 9.202 22.32 8.86133 22.936 8.18C23.552 7.48933 23.86 6.49067 23.86 5.184C23.86 4.94133 23.846 4.67533 23.818 4.386C23.5753 4.918 23.188 5.33333 22.656 5.632C22.124 5.92133 21.5127 6.066 20.822 6.066C20.178 6.066 19.604 5.94467 19.1 5.702C18.6053 5.45933 18.218 5.11867 17.938 4.68C17.658 4.232 17.518 3.714 17.518 3.126C17.518 2.52867 17.6627 2.00133 17.952 1.544C18.2413 1.08667 18.638 0.736666 19.142 0.494C19.6553 0.242 20.2293 0.116 20.864 0.116ZM20.976 5.212C21.4707 5.212 21.9047 5.11867 22.278 4.932C22.6607 4.74533 22.9593 4.48867 23.174 4.162C23.3887 3.83533 23.496 3.47133 23.496 3.07C23.496 2.69667 23.3933 2.35133 23.188 2.034C22.992 1.71667 22.698 1.46 22.306 1.264C21.914 1.068 21.4473 0.969999 20.906 0.969999C20.1967 0.969999 19.618 1.166 19.17 1.558C18.7313 1.94067 18.512 2.454 18.512 3.098C18.512 3.742 18.7313 4.25533 19.17 4.638C19.618 5.02067 20.22 5.212 20.976 5.212ZM32.2072 4.862C32.8232 5.06733 33.2946 5.37533 33.6212 5.786C33.9572 6.19667 34.1252 6.69133 34.1252 7.27C34.1252 7.83933 33.9712 8.33867 33.6632 8.768C33.3552 9.188 32.9119 9.51467 32.3332 9.748C31.7639 9.972 31.0919 10.084 30.3172 10.084C29.1412 10.084 28.2172 9.832 27.5452 9.328C26.8732 8.824 26.5372 8.138 26.5372 7.27C26.5372 6.682 26.6959 6.18733 27.0132 5.786C27.3399 5.37533 27.8112 5.06733 28.4272 4.862C27.9232 4.666 27.5406 4.386 27.2792 4.022C27.0179 3.64867 26.8872 3.21 26.8872 2.706C26.8872 1.91267 27.1952 1.28267 27.8112 0.816C28.4366 0.349333 29.2719 0.116 30.3172 0.116C31.0079 0.116 31.6099 0.223333 32.1232 0.438C32.6459 0.643333 33.0519 0.942 33.3412 1.334C33.6306 1.726 33.7752 2.18333 33.7752 2.706C33.7752 3.21 33.6399 3.64867 33.3692 4.022C33.0986 4.386 32.7112 4.666 32.2072 4.862ZM27.8952 2.734C27.8952 3.27533 28.1099 3.70467 28.5392 4.022C28.9686 4.33933 29.5612 4.498 30.3172 4.498C31.0732 4.498 31.6659 4.33933 32.0952 4.022C32.5339 3.70467 32.7532 3.28 32.7532 2.748C32.7532 2.19733 32.5292 1.76333 32.0812 1.446C31.6426 1.12867 31.0546 0.969999 30.3172 0.969999C29.5706 0.969999 28.9779 1.12867 28.5392 1.446C28.1099 1.76333 27.8952 2.19267 27.8952 2.734ZM30.3172 9.23C31.1852 9.23 31.8619 9.05267 32.3472 8.698C32.8419 8.34333 33.0892 7.86267 33.0892 7.256C33.0892 6.64933 32.8419 6.17333 32.3472 5.828C31.8619 5.47333 31.1852 5.296 30.3172 5.296C29.4586 5.296 28.7819 5.47333 28.2872 5.828C27.8019 6.17333 27.5592 6.64933 27.5592 7.256C27.5592 7.872 27.8019 8.35733 28.2872 8.712C28.7726 9.05733 29.4492 9.23 30.3172 9.23ZM42.737 0.116C44.0344 0.116 45.0284 0.545333 45.719 1.404C46.4097 2.25333 46.755 3.45733 46.755 5.016C46.755 6.108 46.5684 7.032 46.195 7.788C45.8217 8.544 45.299 9.118 44.627 9.51C43.955 9.89267 43.171 10.084 42.275 10.084C41.3044 10.084 40.5297 9.90667 39.951 9.552L40.357 8.74C40.8237 9.048 41.4584 9.202 42.261 9.202C43.3437 9.202 44.193 8.86133 44.809 8.18C45.425 7.48933 45.733 6.49067 45.733 5.184C45.733 4.94133 45.719 4.67533 45.691 4.386C45.4484 4.918 45.061 5.33333 44.529 5.632C43.997 5.92133 43.3857 6.066 42.695 6.066C42.051 6.066 41.477 5.94467 40.973 5.702C40.4784 5.45933 40.091 5.11867 39.811 4.68C39.531 4.232 39.391 3.714 39.391 3.126C39.391 2.52867 39.5357 2.00133 39.825 1.544C40.1144 1.08667 40.511 0.736666 41.015 0.494C41.5284 0.242 42.1024 0.116 42.737 0.116ZM42.849 5.212C43.3437 5.212 43.7777 5.11867 44.151 4.932C44.5337 4.74533 44.8324 4.48867 45.047 4.162C45.2617 3.83533 45.369 3.47133 45.369 3.07C45.369 2.69667 45.2664 2.35133 45.061 2.034C44.865 1.71667 44.571 1.46 44.179 1.264C43.787 1.068 43.3204 0.969999 42.779 0.969999C42.0697 0.969999 41.491 1.166 41.043 1.558C40.6044 1.94067 40.385 2.454 40.385 3.098C40.385 3.742 40.6044 4.25533 41.043 4.638C41.491 5.02067 42.093 5.212 42.849 5.212ZM52.3723 10.084C51.6163 10.084 50.9396 9.88333 50.3423 9.482C49.7543 9.08067 49.2923 8.50667 48.9563 7.76C48.6296 7.004 48.4663 6.11733 48.4663 5.1C48.4663 4.08267 48.6296 3.20067 48.9563 2.454C49.2923 1.698 49.7543 1.11933 50.3423 0.717999C50.9396 0.316666 51.6163 0.116 52.3723 0.116C53.1283 0.116 53.8003 0.316666 54.3883 0.717999C54.9856 1.11933 55.4523 1.698 55.7883 2.454C56.1243 3.20067 56.2923 4.08267 56.2923 5.1C56.2923 6.11733 56.1243 7.004 55.7883 7.76C55.4523 8.50667 54.9856 9.08067 54.3883 9.482C53.8003 9.88333 53.1283 10.084 52.3723 10.084ZM52.3723 9.16C52.9416 9.16 53.4409 9.00133 53.8703 8.684C54.3089 8.36667 54.6496 7.90467 54.8923 7.298C55.1349 6.69133 55.2563 5.95867 55.2563 5.1C55.2563 4.24133 55.1349 3.50867 54.8923 2.902C54.6496 2.29533 54.3089 1.83333 53.8703 1.516C53.4409 1.19867 52.9416 1.04 52.3723 1.04C51.8029 1.04 51.2989 1.19867 50.8603 1.516C50.4309 1.83333 50.0949 2.29533 49.8523 2.902C49.6096 3.50867 49.4883 4.24133 49.4883 5.1C49.4883 5.95867 49.6096 6.69133 49.8523 7.298C50.0949 7.90467 50.4309 8.36667 50.8603 8.684C51.2989 9.00133 51.8029 9.16 52.3723 9.16ZM64.9519 0.116C66.2492 0.116 67.2432 0.545333 67.9339 1.404C68.6245 2.25333 68.9699 3.45733 68.9699 5.016C68.9699 6.108 68.7832 7.032 68.4099 7.788C68.0365 8.544 67.5139 9.118 66.8419 9.51C66.1699 9.89267 65.3859 10.084 64.4899 10.084C63.5192 10.084 62.7445 9.90667 62.1659 9.552L62.5719 8.74C63.0385 9.048 63.6732 9.202 64.4759 9.202C65.5585 9.202 66.4079 8.86133 67.0239 8.18C67.6399 7.48933 67.9479 6.49067 67.9479 5.184C67.9479 4.94133 67.9339 4.67533 67.9059 4.386C67.6632 4.918 67.2759 5.33333 66.7439 5.632C66.2119 5.92133 65.6005 6.066 64.9099 6.066C64.2659 6.066 63.6919 5.94467 63.1879 5.702C62.6932 5.45933 62.3059 5.11867 62.0259 4.68C61.7459 4.232 61.6059 3.714 61.6059 3.126C61.6059 2.52867 61.7505 2.00133 62.0399 1.544C62.3292 1.08667 62.7259 0.736666 63.2299 0.494C63.7432 0.242 64.3172 0.116 64.9519 0.116ZM65.0639 5.212C65.5585 5.212 65.9925 5.11867 66.3659 4.932C66.7485 4.74533 67.0472 4.48867 67.2619 4.162C67.4765 3.83533 67.5839 3.47133 67.5839 3.07C67.5839 2.69667 67.4812 2.35133 67.2759 2.034C67.0799 1.71667 66.7859 1.46 66.3939 1.264C66.0019 1.068 65.5352 0.969999 64.9939 0.969999C64.2845 0.969999 63.7059 1.166 63.2579 1.558C62.8192 1.94067 62.5999 2.454 62.5999 3.098C62.5999 3.742 62.8192 4.25533 63.2579 4.638C63.7059 5.02067 64.3079 5.212 65.0639 5.212ZM73.2571 4.218C74.6758 4.218 75.7071 4.47467 76.3511 4.988C77.0045 5.492 77.3311 6.20133 77.3311 7.116C77.3311 7.68533 77.1958 8.194 76.9251 8.642C76.6638 9.09 76.2671 9.44467 75.7351 9.706C75.2031 9.958 74.5498 10.084 73.7751 10.084C73.0751 10.084 72.4078 9.972 71.7731 9.748C71.1478 9.51467 70.6438 9.20667 70.2611 8.824L70.7511 8.026C71.0778 8.362 71.5071 8.63733 72.0391 8.852C72.5711 9.05733 73.1451 9.16 73.7611 9.16C74.5731 9.16 75.1985 8.978 75.6371 8.614C76.0851 8.25 76.3091 7.76467 76.3091 7.158C76.3091 6.486 76.0571 5.97733 75.5531 5.632C75.0585 5.28667 74.2185 5.114 73.0331 5.114H70.9471L71.4511 0.199999H76.8131V1.096H72.3331L71.9971 4.218H73.2571ZM84.4748 4.862C85.0908 5.06733 85.5621 5.37533 85.8888 5.786C86.2248 6.19667 86.3928 6.69133 86.3928 7.27C86.3928 7.83933 86.2388 8.33867 85.9308 8.768C85.6228 9.188 85.1795 9.51467 84.6008 9.748C84.0315 9.972 83.3595 10.084 82.5848 10.084C81.4088 10.084 80.4848 9.832 79.8128 9.328C79.1408 8.824 78.8048 8.138 78.8048 7.27C78.8048 6.682 78.9635 6.18733 79.2808 5.786C79.6075 5.37533 80.0788 5.06733 80.6948 4.862C80.1908 4.666 79.8081 4.386 79.5468 4.022C79.2855 3.64867 79.1548 3.21 79.1548 2.706C79.1548 1.91267 79.4628 1.28267 80.0788 0.816C80.7041 0.349333 81.5395 0.116 82.5848 0.116C83.2755 0.116 83.8775 0.223333 84.3908 0.438C84.9135 0.643333 85.3195 0.942 85.6088 1.334C85.8981 1.726 86.0428 2.18333 86.0428 2.706C86.0428 3.21 85.9075 3.64867 85.6368 4.022C85.3661 4.386 84.9788 4.666 84.4748 4.862ZM80.1628 2.734C80.1628 3.27533 80.3775 3.70467 80.8068 4.022C81.2361 4.33933 81.8288 4.498 82.5848 4.498C83.3408 4.498 83.9335 4.33933 84.3628 4.022C84.8015 3.70467 85.0208 3.28 85.0208 2.748C85.0208 2.19733 84.7968 1.76333 84.3488 1.446C83.9101 1.12867 83.3221 0.969999 82.5848 0.969999C81.8381 0.969999 81.2455 1.12867 80.8068 1.446C80.3775 1.76333 80.1628 2.19267 80.1628 2.734ZM82.5848 9.23C83.4528 9.23 84.1295 9.05267 84.6148 8.698C85.1095 8.34333 85.3568 7.86267 85.3568 7.256C85.3568 6.64933 85.1095 6.17333 84.6148 5.828C84.1295 5.47333 83.4528 5.296 82.5848 5.296C81.7261 5.296 81.0495 5.47333 80.5548 5.828C80.0695 6.17333 79.8268 6.64933 79.8268 7.256C79.8268 7.872 80.0695 8.35733 80.5548 8.712C81.0401 9.05733 81.7168 9.23 82.5848 9.23ZM98.8686 0.199999V0.913999L94.7666 10H93.6746L97.7066 1.096H92.6666V2.93H91.6726V0.199999H98.8686ZM105.801 4.862C106.417 5.06733 106.888 5.37533 107.215 5.786C107.551 6.19667 107.719 6.69133 107.719 7.27C107.719 7.83933 107.565 8.33867 107.257 8.768C106.949 9.188 106.506 9.51467 105.927 9.748C105.358 9.972 104.686 10.084 103.911 10.084C102.735 10.084 101.811 9.832 101.139 9.328C100.467 8.824 100.131 8.138 100.131 7.27C100.131 6.682 100.29 6.18733 100.607 5.786C100.934 5.37533 101.405 5.06733 102.021 4.862C101.517 4.666 101.134 4.386 100.873 4.022C100.612 3.64867 100.481 3.21 100.481 2.706C100.481 1.91267 100.789 1.28267 101.405 0.816C102.03 0.349333 102.866 0.116 103.911 0.116C104.602 0.116 105.204 0.223333 105.717 0.438C106.24 0.643333 106.646 0.942 106.935 1.334C107.224 1.726 107.369 2.18333 107.369 2.706C107.369 3.21 107.234 3.64867 106.963 4.022C106.692 4.386 106.305 4.666 105.801 4.862ZM101.489 2.734C101.489 3.27533 101.704 3.70467 102.133 4.022C102.562 4.33933 103.155 4.498 103.911 4.498C104.667 4.498 105.26 4.33933 105.689 4.022C106.128 3.70467 106.347 3.28 106.347 2.748C106.347 2.19733 106.123 1.76333 105.675 1.446C105.236 1.12867 104.648 0.969999 103.911 0.969999C103.164 0.969999 102.572 1.12867 102.133 1.446C101.704 1.76333 101.489 2.19267 101.489 2.734ZM103.911 9.23C104.779 9.23 105.456 9.05267 105.941 8.698C106.436 8.34333 106.683 7.86267 106.683 7.256C106.683 6.64933 106.436 6.17333 105.941 5.828C105.456 5.47333 104.779 5.296 103.911 5.296C103.052 5.296 102.376 5.47333 101.881 5.828C101.396 6.17333 101.153 6.64933 101.153 7.256C101.153 7.872 101.396 8.35733 101.881 8.712C102.366 9.05733 103.043 9.23 103.911 9.23ZM118.893 4.862C119.509 5.06733 119.98 5.37533 120.307 5.786C120.643 6.19667 120.811 6.69133 120.811 7.27C120.811 7.83933 120.657 8.33867 120.349 8.768C120.041 9.188 119.597 9.51467 119.019 9.748C118.449 9.972 117.777 10.084 117.003 10.084C115.827 10.084 114.903 9.832 114.231 9.328C113.559 8.824 113.223 8.138 113.223 7.27C113.223 6.682 113.381 6.18733 113.699 5.786C114.025 5.37533 114.497 5.06733 115.113 4.862C114.609 4.666 114.226 4.386 113.965 4.022C113.703 3.64867 113.573 3.21 113.573 2.706C113.573 1.91267 113.881 1.28267 114.497 0.816C115.122 0.349333 115.957 0.116 117.003 0.116C117.693 0.116 118.295 0.223333 118.809 0.438C119.331 0.643333 119.737 0.942 120.027 1.334C120.316 1.726 120.461 2.18333 120.461 2.706C120.461 3.21 120.325 3.64867 120.055 4.022C119.784 4.386 119.397 4.666 118.893 4.862ZM114.581 2.734C114.581 3.27533 114.795 3.70467 115.225 4.022C115.654 4.33933 116.247 4.498 117.003 4.498C117.759 4.498 118.351 4.33933 118.781 4.022C119.219 3.70467 119.439 3.28 119.439 2.748C119.439 2.19733 119.215 1.76333 118.767 1.446C118.328 1.12867 117.74 0.969999 117.003 0.969999C116.256 0.969999 115.663 1.12867 115.225 1.446C114.795 1.76333 114.581 2.19267 114.581 2.734ZM117.003 9.23C117.871 9.23 118.547 9.05267 119.033 8.698C119.527 8.34333 119.775 7.86267 119.775 7.256C119.775 6.64933 119.527 6.17333 119.033 5.828C118.547 5.47333 117.871 5.296 117.003 5.296C116.144 5.296 115.467 5.47333 114.973 5.828C114.487 6.17333 114.245 6.64933 114.245 7.256C114.245 7.872 114.487 8.35733 114.973 8.712C115.458 9.05733 116.135 9.23 117.003 9.23ZM129.373 0.199999V0.913999L125.271 10H124.179L128.211 1.096H123.171V2.93H122.177V0.199999H129.373Z" fill="black"/>
</svg>
